<svg viewBox="0 0 128 128" xmlns="http://www.w3.org/2000/svg" xmlns:xlink="http://www.w3.org/1999/xlink">
  <g id="Layer_1">
    <path d="M63.85,123.84l60.1-87.8l0.05-0.02v-0.03L96.04,4H32.01L4,35.93v0.03l0.03,0.07l59.42,87.45 l0.32,0.44l0.07-0.09L63.62,123h0L63.85,123.84z" style="fill:#81D4FA;"/>
    <linearGradient id="SVGID_1_" gradientUnits="userSpaceOnUse" x1="4.1114" x2="123.8886" y1="64" y2="64">
      <stop offset="7.573342e-04" style="stop-color:#81D4FA"/>
      <stop offset="1" style="stop-color:#29B6F6"/>
    </linearGradient>
    <polygon points="63.79,123.93 4.11,36.03 32.01,4.07 96.04,4.07 123.89,36.03 " style="fill:url(#SVGID_1_);"/>
    <g>
      <polygon points="64,4 63.95,4.07 64.05,4.07 " style="fill:none;"/>
      <linearGradient id="SVGID_3_" gradientUnits="userSpaceOnUse" x1="63.599" x2="63.599" y1="123.8948" y2="36.0029">
        <stop offset="0" style="stop-color:#81D4FA"/>
        <stop offset="0.2208" style="stop-color:#7DD3FA"/>
        <stop offset="0.4315" style="stop-color:#72CFF9"/>
        <stop offset="0.638" style="stop-color:#5EC8F8"/>
        <stop offset="0.8408" style="stop-color:#44BFF7"/>
        <stop offset="1" style="stop-color:#29B6F6"/>
      </linearGradient>
      <polygon points="63.78,123.89 87.55,36 39.65,36.05 " style="fill:url(#SVGID_3_);"/>
      <polygon points="87.55,36 87.94,36 87.66,35.62 " style="fill:#81D4FA;"/>
      <linearGradient id="SVGID_4_" gradientUnits="userSpaceOnUse" x1="93.8967" x2="93.8967" y1="123.9119" y2="36">
        <stop offset="0" style="stop-color:#039BE5"/>
        <stop offset="0.3689" style="stop-color:#0398E2"/>
        <stop offset="0.6377" style="stop-color:#0390D9"/>
        <stop offset="0.874" style="stop-color:#0282C9"/>
        <stop offset="1" style="stop-color:#0277BD"/>
      </linearGradient>
      <polygon points="124,36.02 87.58,36 63.79,123.91 124,36.03 " style="fill:url(#SVGID_4_);"/>
      <linearGradient id="SVGID_5_" gradientUnits="userSpaceOnUse" x1="33.9438" x2="33.9438" y1="123.9119" y2="35.9677">
        <stop offset="0" style="stop-color:#29B6F6"/>
        <stop offset="0.3305" style="stop-color:#25B3F4"/>
        <stop offset="0.6457" style="stop-color:#1AABEF"/>
        <stop offset="0.9539" style="stop-color:#079EE7"/>
        <stop offset="1" style="stop-color:#039BE5"/>
      </linearGradient>
      <polygon points="39.86,36.59 39,37.75 39.86,36.59 39.69,35.98 4.17,35.97 4.11,36.03 63.78,123.91 " style="fill:url(#SVGID_5_);"/>
      <linearGradient id="SVGID_6_" gradientUnits="userSpaceOnUse" x1="29.5099" x2="21.7827" y1="5.4567" y2="36.3656">
        <stop offset="5.261479e-03" style="stop-color:#B3E5FC"/>
        <stop offset="1" style="stop-color:#4FC3F7"/>
      </linearGradient>
      <polygon points="40,36 32,4.1 3.74,36.05 " style="fill:url(#SVGID_6_);"/>
      <linearGradient id="SVGID_7_" gradientUnits="userSpaceOnUse" x1="105.868" x2="105.868" y1="7.0598" y2="37.0272">
        <stop offset="9.068080e-03" style="stop-color:#81D4FA"/>
        <stop offset="1" style="stop-color:#29B6F6"/>
      </linearGradient>
      <polygon points="87.74,36 95.74,4.1 124,36.05 " style="fill:url(#SVGID_7_);"/>
      <linearGradient id="SVGID_8_" gradientUnits="userSpaceOnUse" x1="63.6441" x2="63.6441" y1="6.7379" y2="35.715">
        <stop offset="0" style="stop-color:#E1F5FE"/>
        <stop offset="0.275" style="stop-color:#D3F0FD"/>
        <stop offset="1" style="stop-color:#B3E5FC"/>
      </linearGradient>
      <polygon points="39.74,36 63.74,4.04 87.55,36 " style="fill:url(#SVGID_8_);"/>
      <linearGradient id="SVGID_9_" gradientUnits="userSpaceOnUse" x1="47.868" x2="47.868" y1="4.4841" y2="37.34">
        <stop offset="9.068080e-03" style="stop-color:#81D4FA"/>
        <stop offset="1" style="stop-color:#29B6F6"/>
      </linearGradient>
      <polygon points="64,4.04 40,36.05 31.74,4 " style="fill:url(#SVGID_9_);"/>
      <linearGradient id="SVGID_10_" gradientUnits="userSpaceOnUse" x1="63.736" x2="96" y1="20.0229" y2="20.0229">
        <stop offset="0.0115" style="stop-color:#4FC3F7"/>
        <stop offset="1" style="stop-color:#29B6F6"/>
      </linearGradient>
      <polygon points="63.74,4.04 87.74,36.05 96,4 " style="fill:url(#SVGID_10_);"/>
    </g>
    <g style="opacity:0.2;">
      <path d="M94.67,7l25.53,29.2l-56.42,82.41L7.76,36.19L33.37,7H94.67 M96.04,4H32.01L4,35.93v0.03l0.03,0.07 l59.74,87.9l60.18-87.9l0.05-0.02v-0.03L96.04,4L96.04,4z" style="fill:#424242;"/>
    </g>
  </g>
</svg> 